HIERARCHY
ROOT Hips
{
	OFFSET 0.000000 100.481300 0.000000
	CHANNELS 6 Xposition Yposition Zposition Xrotation Yrotation Zrotation
	JOINT Spine
	{
		OFFSET -0.279200 12.230698 -2.892100
		CHANNELS 3 Xrotation Yrotation Zrotation
		JOINT Spine1
		{
			OFFSET -0.325700 14.269203 -3.374200
			CHANNELS 3 Xrotation Yrotation Zrotation
			JOINT Spine2
			{
				OFFSET -0.372300 16.307602 -0.352600
				CHANNELS 3 Xrotation Yrotation Zrotation
				JOINT Neck
				{
					OFFSET -0.418800 17.814194 8.416900
					CHANNELS 3 Xrotation Yrotation Zrotation
					JOINT Head
					{
						OFFSET 0.000000 7.031097 3.806800
						CHANNELS 3 Xrotation Yrotation Zrotation
						JOINT HeadTop_End
						{
							OFFSET 0.000000 24.646606 12.978600
							CHANNELS 3 Xrotation Yrotation Zrotation
							End Site
							{
								OFFSET 0.000000 27.854965 0.000000
							}
						}
					}
				}
				JOINT LeftShoulder
				{
					OFFSET 16.952999 14.495407 -7.737500
					CHANNELS 3 Xrotation Yrotation Zrotation
					JOINT LeftArm
					{
						OFFSET 9.308998 -2.777710 0.208600
						CHANNELS 3 Xrotation Yrotation Zrotation
						JOINT LeftForeArm
						{
							OFFSET 29.972298 0.000000 0.000000
							CHANNELS 3 Xrotation Yrotation Zrotation
							JOINT LeftHand
							{
								OFFSET 26.026505 0.000000 0.000000
								CHANNELS 3 Xrotation Yrotation Zrotation
								JOINT LeftHandThumb1
								{
									OFFSET 12.240501 -7.147949 9.207150
									CHANNELS 3 Xrotation Yrotation Zrotation
									JOINT LeftHandThumb2
									{
										OFFSET 4.138618 -2.389435 2.389433
										CHANNELS 3 Xrotation Yrotation Zrotation
										JOINT LeftHandThumb3
										{
											OFFSET 2.726913 -1.574387 1.574386
											CHANNELS 3 Xrotation Yrotation Zrotation
											JOINT LeftHandThumb4
											{
												OFFSET 3.941010 -2.275345 2.275342
												CHANNELS 3 Xrotation Yrotation Zrotation
												End Site
												{
													OFFSET -0.005798 5.087799 0.009903
												}
											}
										}
									}
								}
								JOINT LeftHandIndex1
								{
									OFFSET 24.424698 -1.985611 5.953459
									CHANNELS 3 Xrotation Yrotation Zrotation
									JOINT LeftHandIndex2
									{
										OFFSET 6.426697 0.000000 0.000000
										CHANNELS 3 Xrotation Yrotation Zrotation
										JOINT LeftHandIndex3
										{
											OFFSET 5.337898 0.000000 0.000000
											CHANNELS 3 Xrotation Yrotation Zrotation
											JOINT LeftHandIndex4
											{
												OFFSET 4.409401 0.000000 0.000000
												CHANNELS 3 Xrotation Yrotation Zrotation
												End Site
												{
													OFFSET 0.000000 4.409363 0.014373
												}
											}
										}
									}
								}
								JOINT LeftHandMiddle1
								{
									OFFSET 23.810104 0.000000 0.000000
									CHANNELS 3 Xrotation Yrotation Zrotation
									JOINT LeftHandMiddle2
									{
										OFFSET 7.176498 0.000000 0.000000
										CHANNELS 3 Xrotation Yrotation Zrotation
										JOINT LeftHandMiddle3
										{
											OFFSET 6.774902 0.000000 0.000000
											CHANNELS 3 Xrotation Yrotation Zrotation
											JOINT LeftHandMiddle4
											{
												OFFSET 5.403328 0.000000 0.000000
												CHANNELS 3 Xrotation Yrotation Zrotation
												End Site
												{
													OFFSET -0.027702 5.403244 0.017414
												}
											}
										}
									}
								}
								JOINT LeftHandRing1
								{
									OFFSET 22.908401 -0.839279 -6.020567
									CHANNELS 3 Xrotation Yrotation Zrotation
									JOINT LeftHandRing2
									{
										OFFSET 6.337502 0.000000 0.000000
										CHANNELS 3 Xrotation Yrotation Zrotation
										JOINT LeftHandRing3
										{
											OFFSET 5.779297 0.000000 0.000000
											CHANNELS 3 Xrotation Yrotation Zrotation
											JOINT LeftHandRing4
											{
												OFFSET 4.965698 0.000000 0.000000
												CHANNELS 3 Xrotation Yrotation Zrotation
												End Site
												{
													OFFSET 0.000000 4.965668 0.016186
												}
											}
										}
									}
								}
								JOINT LeftHandPinky1
								{
									OFFSET 20.037003 -1.530319 -10.950146
									CHANNELS 3 Xrotation Yrotation Zrotation
									JOINT LeftHandPinky2
									{
										OFFSET 5.254700 0.000000 0.000000
										CHANNELS 3 Xrotation Yrotation Zrotation
										JOINT LeftHandPinky3
										{
											OFFSET 4.810204 0.000000 0.000000
											CHANNELS 3 Xrotation Yrotation Zrotation
											JOINT LeftHandPinky4
											{
												OFFSET 3.647202 0.000000 0.000000
												CHANNELS 3 Xrotation Yrotation Zrotation
												End Site
												{
													OFFSET 0.000000 3.647186 0.011889
												}
											}
										}
									}
								}
							}
						}
					}
				}
				JOINT RightShoulder
				{
					OFFSET -15.141001 14.495407 -7.737500
					CHANNELS 3 Xrotation Yrotation Zrotation
					JOINT RightArm
					{
						OFFSET -9.308998 -2.777710 0.208500
						CHANNELS 3 Xrotation Yrotation Zrotation
						JOINT RightForeArm
						{
							OFFSET -29.972300 0.000000 0.000000
							CHANNELS 3 Xrotation Yrotation Zrotation
							JOINT RightHand
							{
								OFFSET -26.026505 0.000000 0.000000
								CHANNELS 3 Xrotation Yrotation Zrotation
								JOINT RightHandThumb1
								{
									OFFSET -12.240601 -7.148026 9.207092
									CHANNELS 3 Xrotation Yrotation Zrotation
									JOINT RightHandThumb2
									{
										OFFSET -4.138618 -2.389435 2.389433
										CHANNELS 3 Xrotation Yrotation Zrotation
										JOINT RightHandThumb3
										{
											OFFSET -2.726974 -1.574417 1.574421
											CHANNELS 3 Xrotation Yrotation Zrotation
											JOINT RightHandThumb4
											{
												OFFSET -3.941010 -2.275345 2.275343
												CHANNELS 3 Xrotation Yrotation Zrotation
												End Site
												{
													OFFSET 0.005814 5.087799 0.009927
												}
											}
										}
									}
								}
								JOINT RightHandIndex1
								{
									OFFSET -24.424698 -1.985657 5.953444
									CHANNELS 3 Xrotation Yrotation Zrotation
									JOINT RightHandIndex2
									{
										OFFSET -6.426697 0.000000 0.000000
										CHANNELS 3 Xrotation Yrotation Zrotation
										JOINT RightHandIndex3
										{
											OFFSET -5.337898 0.000000 0.000000
											CHANNELS 3 Xrotation Yrotation Zrotation
											JOINT RightHandIndex4
											{
												OFFSET -4.409401 0.000000 0.000000
												CHANNELS 3 Xrotation Yrotation Zrotation
												End Site
												{
													OFFSET 0.000000 4.409363 0.014408
												}
											}
										}
									}
								}
								JOINT RightHandMiddle1
								{
									OFFSET -23.810097 0.000000 0.000000
									CHANNELS 3 Xrotation Yrotation Zrotation
									JOINT RightHandMiddle2
									{
										OFFSET -7.176498 0.000000 0.000000
										CHANNELS 3 Xrotation Yrotation Zrotation
										JOINT RightHandMiddle3
										{
											OFFSET -6.774902 0.000000 0.000000
											CHANNELS 3 Xrotation Yrotation Zrotation
											JOINT RightHandMiddle4
											{
												OFFSET -5.403328 0.000000 0.000000
												CHANNELS 3 Xrotation Yrotation Zrotation
												End Site
												{
													OFFSET 0.027702 5.403244 0.017457
												}
											}
										}
									}
								}
								JOINT RightHandRing1
								{
									OFFSET -22.908302 -0.839325 -6.020576
									CHANNELS 3 Xrotation Yrotation Zrotation
									JOINT RightHandRing2
									{
										OFFSET -6.337502 0.000000 0.000000
										CHANNELS 3 Xrotation Yrotation Zrotation
										JOINT RightHandRing3
										{
											OFFSET -5.779297 0.000000 0.000000
											CHANNELS 3 Xrotation Yrotation Zrotation
											JOINT RightHandRing4
											{
												OFFSET -4.965698 0.000000 0.000000
												CHANNELS 3 Xrotation Yrotation Zrotation
												End Site
												{
													OFFSET 0.000000 4.965668 0.016226
												}
											}
										}
									}
								}
								JOINT RightHandPinky1
								{
									OFFSET -20.037003 -1.530334 -10.950259
									CHANNELS 3 Xrotation Yrotation Zrotation
									JOINT RightHandPinky2
									{
										OFFSET -5.254700 0.000000 0.000000
										CHANNELS 3 Xrotation Yrotation Zrotation
										JOINT RightHandPinky3
										{
											OFFSET -4.810204 0.000000 0.000000
											CHANNELS 3 Xrotation Yrotation Zrotation
											JOINT RightHandPinky4
											{
												OFFSET -3.647202 0.000000 0.000000
												CHANNELS 3 Xrotation Yrotation Zrotation
												End Site
												{
													OFFSET 0.000000 3.647186 0.011917
												}
											}
										}
									}
								}
							}
						}
					}
				}
			}
		}
	}
	JOINT LeftUpLeg
	{
		OFFSET 15.427100 -6.655098 0.678600
		CHANNELS 3 Xrotation Yrotation Zrotation
		JOINT LeftLeg
		{
			OFFSET 4.081073 -39.591068 13.024000
			CHANNELS 3 Xrotation Yrotation Zrotation
			JOINT LeftFoot
			{
				OFFSET -4.081074 -37.707932 -15.979700
				CHANNELS 3 Xrotation Yrotation Zrotation
				JOINT LeftToeBase
				{
					OFFSET 5.346399 -15.068900 20.645000
					CHANNELS 3 Xrotation Yrotation Zrotation
					JOINT LeftToe_End
					{
						OFFSET 2.754700 0.931300 11.300900
						CHANNELS 3 Xrotation Yrotation Zrotation
						End Site
						{
							OFFSET 0.000000 11.669021 0.000000
						}
					}
				}
			}
		}
	}
	JOINT RightUpLeg
	{
		OFFSET -15.569500 -6.655098 0.678600
		CHANNELS 3 Xrotation Yrotation Zrotation
		JOINT RightLeg
		{
			OFFSET -4.081825 -39.591045 13.023800
			CHANNELS 3 Xrotation Yrotation Zrotation
			JOINT RightFoot
			{
				OFFSET 4.081824 -37.707954 -15.979600
				CHANNELS 3 Xrotation Yrotation Zrotation
				JOINT RightToeBase
				{
					OFFSET -5.346400 -15.068900 20.645000
					CHANNELS 3 Xrotation Yrotation Zrotation
					JOINT RightToe_End
					{
						OFFSET -2.754700 0.931300 11.300900
						CHANNELS 3 Xrotation Yrotation Zrotation
						End Site
						{
							OFFSET 0.000000 11.669021 0.000000
						}
					}
				}
			}
		}
	}
}
MOTION
Frames: 6
Frame Time: 0.033333
-5.476115 86.969963 -182.130066 -15.817554 -44.584145 -7.023307 15.930931 0.940779 -1.131099 14.210518 -0.124225 -2.046508 14.244667 -0.276493 -2.000591 -1.624340 7.521993 -0.600280 -5.206845 23.326928 7.126492 -0.000003 -0.000001 -0.000000 -32.479964 -5.305333 -0.921995 -46.631679 -3.914135 -59.182688 0.000178 -75.138918 0.000184 -114.881842 -2.705966 35.127933 3.524993 7.495222 4.793976 22.001547 8.275461 -0.919188 -5.461473 -10.868175 3.428533 -0.000002 0.000001 -0.000001 1.693256 6.483264 -36.606156 2.277297 4.635847 -52.305271 0.401693 2.133776 -21.320323 -0.000001 -0.000001 -0.000001 2.423939 7.049427 -53.684928 3.580658 5.394017 -67.132037 0.613224 2.611328 -26.426979 0.000002 -0.000002 -0.000001 1.032144 6.420469 -62.626940 3.658544 5.426066 -67.958197 0.681108 2.743511 -27.879917 0.000001 -0.000001 -0.000000 -3.929143 5.683549 -74.321262 2.960730 5.089486 -60.354120 0.285658 1.808734 -17.948275 0.000000 0.000000 0.000001 -35.188947 -7.077996 -5.938716 -42.637610 57.912949 89.691066 0.000152 101.225097 -0.000137 -48.352296 -15.936546 -22.338636 5.727492 -3.950505 7.512353 22.214043 -21.203188 -14.342547 -0.293593 -45.894951 -29.853565 -0.000001 0.000001 -0.000001 -0.499105 0.177352 10.827282 0.585408 -2.262430 29.011020 0.420885 -1.936481 24.522406 0.000000 0.000000 -0.000000 3.085650 -6.890033 52.789736 6.149799 -4.411995 108.712638 0.571196 -2.236614 28.648590 0.000000 0.000000 -0.000000 -2.796231 -3.190318 58.864592 5.329345 -4.608508 98.307650 2.043613 -3.856027 55.832733 -0.000000 0.000001 -0.000001 -3.255094 -3.768820 65.456619 3.551152 -4.524215 76.247027 2.095469 -3.890610 56.600207 0.000001 0.000001 0.000001 -25.143593 37.657958 25.572886 29.750631 4.190912 5.198240 2.750886 7.781141 -9.336515 -0.000046 -0.000002 0.000004 0.000000 -0.000000 -0.000000 -5.346546 3.069118 -8.202739 39.549077 3.797953 0.420026 -22.361969 -12.919398 2.798842 -0.700417 0.000008 -0.000001 -0.000000 0.000001 0.000000 
-5.847770 88.221848 -181.402466 -15.653605 -43.709533 -7.101367 14.072924 0.681127 -0.829092 14.583572 -0.146926 -1.827586 14.610685 -0.275683 -1.787165 -1.314114 7.577407 -0.401019 -4.920625 23.213988 8.002246 0.000000 0.000000 0.000000 -33.149688 -4.976797 -0.471519 -45.480860 -4.261006 -59.384629 0.000164 -74.267270 0.000163 -115.727392 -2.620772 35.072892 3.805813 8.032034 4.525406 21.605598 6.975680 0.535527 -5.333658 -10.648848 3.147678 0.000001 -0.000002 -0.000000 1.496625 6.216801 -36.890132 2.366916 4.703494 -53.406014 0.417175 2.173028 -21.732649 -0.000000 0.000001 -0.000002 2.217543 6.899695 -53.811721 3.548689 5.380467 -66.791580 0.557817 2.496848 -25.183628 0.000001 -0.000000 0.000002 0.955561 6.378578 -62.577831 3.703718 5.444057 -68.435176 0.663758 2.710514 -27.515352 -0.000003 -0.000001 -0.000004 -4.331782 5.568313 -74.307465 2.994584 5.108536 -60.735149 0.261330 1.731868 -17.160811 0.000001 -0.000003 0.000001 -35.914214 -7.197898 -6.163340 -42.951166 57.893373 91.083175 0.000171 101.081493 -0.000165 -48.974847 -16.779430 -23.114221 6.127121 -4.192152 7.933018 22.089754 -20.847054 -14.960312 -0.317301 -46.419677 -30.203581 -0.000003 0.000000 0.000002 -0.511871 0.283300 10.714418 0.602633 -2.293138 29.443819 0.445846 -1.990238 25.250721 0.000000 0.000000 0.000000 3.121656 -6.930011 52.413721 6.169770 -4.405189 108.972226 0.518900 -2.138193 27.278842 -0.000000 0.000000 -0.000000 -2.887119 -3.092867 58.525535 5.345575 -4.606137 98.509660 1.993508 -3.821602 55.084147 -0.000000 0.000000 -0.000000 -3.378869 -3.680478 65.214885 3.610985 -4.538429 77.004659 2.116999 -3.904684 56.916827 0.000000 -0.000001 0.000003 -23.836324 39.470912 26.094965 27.246050 3.352760 3.541914 2.979686 6.157801 -7.895257 -0.000124 0.000004 -0.000004 -0.000000 0.000000 0.000000 -2.796164 3.115759 -8.210284 36.346790 3.160702 0.770002 -21.543240 -13.469236 3.117428 -0.469579 -0.000013 0.000003 0.000000 0.000001 -0.000000 
-6.181625 89.054436 -180.551819 -15.706037 -42.661037 -7.297381 12.483871 0.365384 -0.686948 14.885465 -0.161356 -1.551233 14.902749 -0.270887 -1.518147 -0.980866 7.560416 -0.108890 -4.970878 22.880488 8.970992 -0.000001 0.000000 -0.000001 -33.890145 -4.728121 0.030225 -44.546268 -4.707322 -59.684064 0.000094 -72.856719 0.000096 -116.541441 -2.352118 34.873870 4.082561 8.555977 4.272789 21.208907 5.547713 1.998645 -5.189427 -10.413883 2.847807 -0.000001 -0.000002 0.000001 1.267504 5.912989 -37.194704 2.466240 4.775402 -54.608131 0.434590 2.216156 -22.187154 0.000003 0.000001 -0.000003 1.980029 6.728597 -53.927625 3.513114 5.365150 -66.411562 0.500195 2.370574 -23.826808 0.000000 0.000001 0.000000 0.857135 6.324751 -62.519788 3.760296 5.465987 -69.030345 0.648344 2.680740 -27.187467 0.000001 -0.000001 0.000002 -4.730649 5.442781 -74.230346 3.039622 5.133433 -61.239770 0.240246 1.662084 -16.448759 -0.000000 -0.000004 -0.000001 -36.780319 -7.464934 -6.731307 -43.885652 57.848157 93.010880 0.000246 100.553949 -0.000220 -49.876131 -17.311070 -23.902766 6.544966 -4.412779 8.385165 21.977799 -20.444450 -15.603839 -0.349898 -47.008435 -30.590809 0.000001 0.000002 -0.000000 -0.539895 0.411349 10.784339 0.623400 -2.329609 29.959631 0.473580 -2.047922 26.037397 -0.000000 0.000000 0.000000 3.179988 -6.983766 52.163049 6.190963 -4.397887 109.248432 0.465103 -2.030561 25.799756 -0.000001 0.000000 -0.000000 -2.989012 -2.989536 58.207234 5.362585 -4.603559 98.721614 1.939513 -3.783425 54.269917 -0.000000 -0.000000 0.000000 -3.515266 -3.594504 65.045380 3.678903 -4.553502 77.861370 2.142953 -3.921438 57.297255 0.000000 0.000001 0.000001 -22.693589 40.777401 26.582569 25.697149 2.742513 2.096988 2.813531 4.606152 -6.728601 -0.000040 -0.000001 0.000001 0.000000 0.000000 0.000000 -0.295332 3.211062 -8.208610 33.885265 2.609264 1.032842 -21.205765 -14.283555 3.442801 -0.308085 -0.000006 0.000000 -0.000000 0.000004 0.000000 
-6.465279 89.594200 -179.635056 -15.957670 -41.628668 -7.609988 11.140100 0.185288 -0.648408 15.230984 -0.157464 -1.305921 15.240862 -0.253579 -1.277580 -0.611691 7.475766 0.230144 -5.160391 22.385774 9.751379 -0.000000 0.000000 -0.000002 -34.707429 -4.644289 0.295791 -43.608582 -5.293632 -59.884947 0.000174 -71.633310 0.000171 -117.227862 -2.056824 34.726738 4.236267 8.815930 4.054208 20.805166 3.990296 3.454921 -5.067787 -10.299572 2.542631 0.000001 -0.000001 -0.000000 0.938303 5.481153 -37.193385 2.566847 4.845080 -55.807932 0.449948 2.253437 -22.581070 -0.000001 0.000000 -0.000002 1.563173 6.419241 -53.611343 3.488883 5.354565 -66.152322 0.447451 2.247439 -22.517674 -0.000003 -0.000001 -0.000002 0.607424 6.177020 -62.197970 3.826485 5.490773 -69.723616 0.634003 2.652669 -26.879164 0.000002 -0.000003 -0.000000 -5.186058 5.252608 -73.892436 3.093903 5.162722 -61.844740 0.221683 1.597909 -15.796243 0.000000 -0.000000 -0.000004 -37.766558 -7.805141 -7.527458 -44.475269 57.726334 94.862278 -0.000029 100.214578 0.000007 -50.568043 -17.594858 -24.709239 6.969429 -4.582514 8.906808 21.868534 -19.968345 -16.273303 -0.394872 -47.649237 -31.014660 -0.000001 0.000001 -0.000000 -0.597729 0.629098 11.041533 0.648101 -2.371864 30.561422 0.504195 -2.109494 26.882416 -0.000000 0.000000 0.000001 3.243114 -7.039042 51.995167 6.215325 -4.389313 109.566391 0.410424 -1.913418 24.211299 -0.000000 0.000000 -0.000000 -3.086066 -2.884701 57.867016 5.380677 -4.600753 98.946997 1.881967 -3.741454 53.393105 -0.000000 0.000001 -0.000003 -3.642440 -3.517369 64.916345 3.755828 -4.569302 78.828600 2.174185 -3.941255 57.752849 0.000000 -0.000001 0.000001 -21.555664 41.615806 26.953072 24.843995 2.358509 0.933762 2.365026 3.286975 -5.902223 -0.313989 0.000004 0.000003 0.000000 -0.000000 0.000000 2.118436 3.470196 -8.155619 31.985093 2.083277 1.169395 -21.159574 -15.255919 3.816258 -0.226059 -0.000029 -0.000001 0.000000 -0.000001 -0.000000 
-6.712859 89.979424 -178.709518 -16.259469 -40.702771 -7.800128 9.872551 0.103650 -0.822724 15.616755 -0.149319 -1.091543 15.620957 -0.232658 -1.065976 -0.253518 7.400297 0.530498 -5.507545 21.853525 10.523207 0.000001 0.000001 0.000002 -35.594773 -4.662851 0.609365 -42.636346 -5.735830 -60.112543 0.000063 -70.474787 0.000061 -117.823591 -1.651593 34.526179 4.392208 9.086401 3.853671 20.386870 2.302058 4.889556 -4.924778 -10.149624 2.217116 -0.000000 0.000003 0.000000 0.560489 4.981465 -37.098582 2.679419 4.919378 -57.130332 0.468136 2.296646 -23.039196 0.000001 0.000000 -0.000001 1.119211 6.077773 -53.158147 3.458681 5.341162 -65.828325 0.392458 2.110021 -21.071414 0.000002 0.000001 0.000004 0.343113 6.011488 -61.773686 3.898564 5.516749 -70.474944 0.618706 2.622312 -26.547004 -0.000000 0.000002 -0.000000 -5.677784 5.021572 -73.430046 3.154824 5.194729 -62.519672 0.204684 1.536574 -15.174823 -0.000002 0.000001 -0.000003 -38.840769 -8.136005 -8.389864 -45.013402 57.705256 96.706845 -0.000026 99.859606 0.000012 -51.199183 -17.604840 -25.580786 7.412490 -4.712883 9.552214 21.788814 -19.476450 -16.959749 -0.463097 -48.324234 -31.473877 -0.000002 0.000002 -0.000000 -0.684730 0.953529 11.385869 0.676918 -2.419985 31.251151 0.537990 -2.174764 27.785831 -0.000000 0.000000 0.000002 3.289216 -7.088333 51.664620 6.242062 -4.379757 109.916206 0.355633 -1.786602 22.513572 -0.000000 -0.000000 0.000001 -3.167998 -2.790744 57.549521 5.399969 -4.597671 99.187536 1.821147 -3.695582 52.455197 -0.000001 0.000001 -0.000000 -3.750159 -3.442421 64.742113 3.850480 -4.586921 80.014437 2.218214 -3.968646 58.391274 -0.000000 0.000001 -0.000001 -20.335309 42.198767 26.934752 24.214506 2.068894 0.134025 1.948348 2.300638 -5.371940 -0.189669 0.000007 -0.000001 -0.000000 0.000001 0.000000 4.348467 3.796586 -8.263323 30.468849 1.574536 1.256240 -21.262903 -16.185011 4.215202 -0.169603 0.000019 0.000000 0.000000 0.000002 0.000000 
-6.912834 90.230301 -177.831085 -16.527528 -40.063858 -7.999707 8.705374 0.180581 -1.012935 16.020834 -0.137198 -0.916432 16.023175 -0.204055 -0.892168 0.094501 7.416089 0.745124 -6.003992 21.703397 11.182334 -0.000000 0.000001 0.000000 -36.549879 -4.718730 1.008566 -41.565618 -5.848463 -60.311868 -0.000174 -69.479041 -0.000164 -118.340199 -1.082785 34.223325 4.543961 9.326673 3.551500 19.945768 0.481113 6.288236 -4.729995 -9.857042 1.859986 0.000001 0.000000 0.000001 0.131288 4.395535 -36.749044 2.804244 4.997525 -58.574357 0.489307 2.345746 -23.561837 -0.000001 0.000000 -0.000002 0.750909 5.782088 -52.692550 3.418507 5.323021 -65.395872 0.334706 1.953593 -19.442224 -0.000002 -0.000001 0.000001 0.090660 5.844052 -61.300155 3.973038 5.542473 -71.247875 0.600827 2.586253 -26.153552 -0.000001 0.000003 -0.000000 -6.173910 4.756133 -72.849753 3.223561 5.229764 -63.276348 0.189436 1.479216 -14.595230 0.000000 0.000000 -0.000000 -39.974819 -8.405864 -9.185470 -45.704723 57.850753 98.781140 0.000525 99.369820 -0.000509 -51.573560 -17.381501 -26.410888 7.873521 -4.803375 10.272409 21.701058 -18.885432 -17.663470 -0.567441 -49.048282 -31.981504 0.000000 0.000001 -0.000002 -0.799494 1.322595 11.909091 0.710167 -2.473905 32.029906 0.575053 -2.243672 28.747617 0.000000 -0.000000 -0.000001 3.363558 -7.148931 51.613827 6.268933 -4.369967 110.268466 0.301442 -1.649883 20.706548 -0.000000 -0.000000 -0.000000 -3.254728 -2.698433 57.277912 5.420515 -4.594320 99.444119 1.757278 -3.645725 51.457706 -0.000000 0.000000 -0.000002 -3.866523 -3.375344 64.658771 3.955929 -4.604195 81.330355 2.269180 -3.999475 59.124556 -0.000000 -0.000000 0.000002 -19.662967 42.908970 27.029202 23.836064 1.096721 -0.358010 1.583964 2.106135 -4.890228 -0.188932 -0.000003 0.000001 -0.000000 -0.000001 -0.000000 6.236871 4.424496 -8.323421 29.294541 0.984885 1.280546 -21.397432 -17.045164 4.664380 -0.109289 0.000000 -0.000000 0.000000 0.000000 0.000000 
